<?xml version="1.0" encoding="UTF-8"?>
<svg id="Layer_1" data-name="Layer 1" xmlns="http://www.w3.org/2000/svg" viewBox="0 0 375 375">
  <defs>
    <style>
      .cls-1 {
        fill: none;
      }

      .cls-2 {
        fill: #7e9bec;
      }

      .cls-3 {
        fill: #5ea9eb;
      }

      .cls-4 {
        fill: #7d77eb;
      }

      .cls-5 {
        fill: #c77ee5;
      }

      .cls-6 {
        fill: #9493ec;
      }

      .cls-7 {
        fill: #fcfbfd;
      }

      .cls-8 {
        fill: #dc75b1;
      }

      .cls-9 {
        fill: #cf7ad0;
      }

      .cls-10 {
        fill: #d677cb;
      }

      .cls-11 {
        fill: #d774bb;
      }

      .cls-12 {
        fill: #e26797;
      }

      .cls-13 {
        fill: #fbfbfe;
      }

      .cls-14 {
        fill: #a177de;
      }

      .cls-15 {
        fill: #c7a1ed;
      }

      .cls-16 {
        fill: #9277e4;
      }

      .cls-17 {
        fill: #88a0ed;
      }

      .cls-18 {
        fill: #fbf9fd;
      }

      .cls-19 {
        fill: #fdfafb;
      }

      .cls-20 {
        fill: #bf8ceb;
      }

      .cls-21 {
        fill: #af7adb;
      }

      .cls-22 {
        fill: #fefefe;
      }

      .cls-23 {
        fill: #e86589;
      }

      .cls-24 {
        fill: #f2e3f9;
      }

      .cls-25 {
        fill: #e27ac8;
      }

      .cls-26 {
        fill: #fdfcfe;
      }

      .cls-27 {
        fill: #6672f1;
      }

      .cls-28 {
        fill: #ba77d5;
      }

      .cls-29 {
        fill: #c476d1;
      }

      .cls-30 {
        fill: #4eb3eb;
      }

      .cls-31 {
        fill: #be7eeb;
      }
    </style>
  </defs>
  <path class="cls-1" d="M375,0v375H0V0h375ZM162,102.54c-6.29,1.59-10.47,3.77-15.75,7.49-17.93,12.61-22.7,28.25-20.25,49.4.95,8.18,1.54,8.82,5.25,15.72,2.69,5.02,2.83,5.41,6.75,9.73,4.79,5.28,5.57,5.53,11.25,8.98,8.32,5.05,11.45,6.96,21.75,7.49,8.37.42,10.78-.27,18-2.25,2.09-.57,3.75-.16,6.51-1.36,2.33-1.02,3.16-2.66,3.99-3.13,3.63-2.06,3.71-1.28,7.5-4.49,15.62-13.22,21.08-26.99,18-47.9-.82-5.54-2.31-9.24-4.5-13.47-2.93-5.66-3.82-7.27-8.25-11.98-4.83-5.12-6.15-5.68-12-8.98-5.06-2.86-4.6-2.8-10.5-4.49-5.22-1.49-5.85-2.07-12-2.25s-9.86,0-15.75,1.5h0ZM99.75,223.05c-.9-.82,3.02-6.35.76-7.87-2.54-1.75-3.96,2.88-4.54,4.48-1.54,4.27-4.4,16.94-1.85,20.61l2.62.75c-.16-4.88-.85-9.44,4.79-11.16l8.71,9.67c.44-5.1-5.2-7.87-5.82-12.96-.24-1.99,9.39-7.66,8.07-8.74-3.4-2.38-10.74,7.05-12.74,5.23h0ZM132.57,217.24c-3.1-3.1-11.03-1.63-13.15,2.61-1.65,3.31-2.66,17.47-1.28,20.4s2.99.31,3.74.28c1.52-.06,2.4,3.03,7.13.86,6.7-3.08,10.87-11.86,2.27-15.72,2-1.67,3.17-6.57,1.3-8.44h-.01ZM238.5,225.3l-5.65.02.29-8.53-1.1-1.14-2.53-.08c-1.11,3.47.66,8.71-3.04,10.13v1.45c3.73,1.42,1.86,5.36,2.46,8.83.84,4.85,4.96,5.71,8.81,3.16l-4.92-1.81-.36-7.79,5.6-1.92.44-2.31h0ZM162.61,219.44c-11.79-7.15-20.02,14.03-9.39,19.48,7.02,3.61,14.55-.59,17.02-7.25l-1.88-1.16c-5.36,5-16.54,11.75-15.4-1.13.46-5.19,4.51-8.99,9.78-7.08l-.13-2.86h0ZM217.5,229.03c-5.43-.85-12.05,7.11-6.29,10.39,4.74,2.7,6.94-1.19,8.16-1.17.66,0,1.91,2.33,3.03.54.43-3.06.07-9.93-2.25-12.02s-8.63-3.47-9.39.77c.64.55,6.16-1.17,6.75,1.49h-.01ZM188.25,226.05c-3.86-.38-7.02.63-9.37,3.74l-.39-2.23c-5.59-2.59-4,11.66-3.02,12.37,3.22,2.33,4.84-6.69,6.89-8.91s5.51-2.03,5.89-4.97ZM195.75,235.04c8.36-1.43,10.65-10.65-.33-8.94-10.2,1.59-4.79,14.49,4.26,13.98,3.1-.17,5.71-1.6,5.06-5.05-.92-.95-8.22,5.89-9,0h.01ZM273,235.04c2.83-.27,6.59-2.59,6.83-5.62.02-5.3-13.84-5.04-12.81,2.93,1.03,7.97,14.27,11.7,14.97,2.69-.95-1-8.49,5.73-9,0h.01ZM264,226.8c-3.54-1.61-5.19,8.94-7.56,5.54-.58-3.03-1.62-5.37-5.18-4.79.6,3.16,2.54,15.42,7,14.14,1.9-1.39,6.8-13.8,5.74-14.89ZM243.4,228.3c-1.9.57-1.12,12.81,2.96,11.96,2-.62,1.17-13.2-2.96-11.96Z"/>
  <g>
    <g>
      <path class="cls-4" d="M132.57,217.24c1.87,1.87.7,6.76-1.3,8.44,8.59,3.86,4.43,12.64-2.27,15.72-4.72,2.17-5.6-.92-7.13-.86-.75.03-2.37,2.64-3.74-.28s-.37-17.09,1.28-20.4c2.12-4.24,10.05-5.71,13.15-2.61h.01ZM129.75,218.57c-10.19-.6-9.7,12.32-8.14,19.35,9.68,5.06,17.46-16.78,3.14-6.74-7.2-3.14,7.14-6.61,5-12.61Z"/>
      <path class="cls-27" d="M99.75,223.05c2,1.82,9.35-7.61,12.74-5.23,1.31,1.08-8.32,6.75-8.07,8.74.62,5.09,6.26,7.86,5.82,12.96l-8.71-9.67c-5.63,1.72-4.95,6.29-4.79,11.16l-2.62-.75c-2.56-3.67.3-16.34,1.85-20.61.58-1.6,2.01-6.23,4.54-4.48,2.25,1.52-1.67,7.05-.76,7.87h0ZM99.38,223.8v.75c.49-.25.49-.5,0-.75Z"/>
      <path class="cls-16" d="M162.61,219.44l.13,2.86c-5.27-1.91-9.32,1.88-9.78,7.08-1.13,12.89,10.04,6.13,15.4,1.13l1.88,1.16c-2.47,6.66-10,10.85-17.02,7.25-10.63-5.46-2.41-26.63,9.39-19.48h0Z"/>
      <path class="cls-25" d="M273,235.04c.5,5.72,8.05-1,9,0-.7,9-13.94,5.28-14.97-2.69s12.83-8.23,12.81-2.93c-.24,3.03-3.99,5.35-6.83,5.62h-.01Z"/>
      <path class="cls-21" d="M195.75,235.04c.78,5.89,8.08-.95,9,0,.65,3.45-1.96,4.88-5.06,5.05-9.05.51-14.46-12.39-4.26-13.98,10.97-1.72,8.69,7.51.33,8.94h-.01Z"/>
      <path class="cls-28" d="M217.5,229.03c-.59-2.66-6.11-.94-6.75-1.49.76-4.24,6.99-2.94,9.39-.77s2.68,8.96,2.25,12.02c-1.12,1.79-2.37-.53-3.03-.54-1.22-.02-3.42,3.88-8.16,1.17-5.76-3.28.86-11.24,6.29-10.39h.01ZM218.2,232.09c-2.32-1.64-6.53,3.11-5.19,5.94l5.07-1.67c.93-.72.73-3.84.13-4.26h-.01Z"/>
      <path class="cls-29" d="M238.5,225.3l-.44,2.31-5.6,1.92.36,7.79,4.92,1.81c-3.85,2.55-7.97,1.69-8.81-3.16-.6-3.46,1.27-7.41-2.46-8.83v-1.45c3.7-1.41,1.93-6.66,3.04-10.13l2.53.08,1.1,1.14-.29,8.53,5.65-.02h0Z"/>
      <path class="cls-10" d="M264,226.8c1.06,1.09-3.84,13.5-5.74,14.89-4.46,1.27-6.4-10.98-7-14.14,3.56-.58,4.6,1.76,5.18,4.79,2.38,3.4,4.02-7.15,7.56-5.54Z"/>
      <path class="cls-14" d="M188.25,226.05c-.38,2.93-3.86,2.77-5.89,4.97s-3.68,11.24-6.89,8.91c-.98-.71-2.58-14.96,3.02-12.37l.39,2.23c2.36-3.11,5.52-4.11,9.37-3.74Z"/>
      <path class="cls-9" d="M243.4,228.3c4.13-1.24,4.96,11.34,2.96,11.96-4.08.84-4.87-11.39-2.96-11.96Z"/>
      <path class="cls-18" d="M129.75,218.57c2.15,6-12.2,9.47-5,12.61,14.32-10.04,6.54,11.79-3.14,6.74-1.56-7.03-2.05-19.95,8.14-19.35Z"/>
      <path class="cls-22" d="M99.38,223.8c.49.25.49.5,0,.75v-.75Z"/>
      <path class="cls-18" d="M218.2,232.09c.61.43.81,3.55-.13,4.26l-5.07,1.67c-1.34-2.82,2.87-7.57,5.19-5.94h.01Z"/>
    </g>
    <g>
      <path class="cls-17" d="M204,164.67v1.5c-1.74.05-3.5-.06-5.25,0l-1.51,9.72c2.99.04,6.01-.03,9,0v2.25c-2.02,0-8.65-.42-9.78.34l-6.63,14.56,1.41.07v1.5c-4.33.15-4.63.98-7.5,4.12,1.18.35,4.1-.07,5.25-.38v.75c-7.22,1.98-9.63,2.67-18,2.25v-2.25c5.22,2.14,9.57,0,13.5-3.37-3.91-.64-8.04-.42-12-.37v-2.25c4.71.08,9.57.27,14.26-.37,3.3-4,5.42-8.87,6.74-13.85l.74-.37-.74-.38c-2.99-.02-6.01.03-9,0v-2.25c3.46-.06,6.97.12,10.43-.08l1.58-8.9c-2.11.48-4.17-.6-6-.75v-1.5h13.5,0Z"/>
      <path class="cls-30" d="M225,142.22c3.08,20.91-2.38,34.68-18,47.9l-.75-.75c1.43-1.23,8.97-9.58,9.01-10.85-2.89-.71-6.05-.37-9.01-.38v-2.25c2.59.03,10.16.57,11.63-.74,1.27-1.12,5.67-13.46,4.87-14.23l-3.67.12c0,2.08-1.87,3.66-3.83,4.37v-.75c.88-2.15,2.01-5.26,2.25-7.49h1.5c.02.5-.04,1,0,1.49l4.47-.04c1.11-5.08.97-9.84.04-14.93.11-.07-.33-2.08,1.5-1.5v.03Z"/>
      <path class="cls-23" d="M146.25,112.28c-4.26,3.02-7.79,7.73-11.25,11.61,3.15.66,6.54.4,9.75.37v2.25c-2.71-.03-9.97-.6-11.62.76-1.48,1.21-6.24,14.43-5.63,14.96,6.04,1.16,3.03-3.67,7.5-5.23v1.5c-.1.07-1.45,1.92-1.48,2.04-.28,1.16.04,2.68-.02,3.95-.47-.08-1.12.12-1.5,0-1.47-.47-4.3-1.96-5.12.5-1.42,4.23-.54,9.4-.13,13.72-.05,0-.28.76-.75.75-2.45-21.15,2.32-36.79,20.25-49.4v2.25-.03Z"/>
      <path class="cls-20" d="M157.5,181.89c1.58,3.5,4.54,7.44,6.15,11.07,2.92.37,5.91.11,8.85.16v2.25c-1.99.03-4.01-.03-6,0,.71.95,3.64,3.38,4.5,3.74v2.25c-10.3-.52-13.43-2.43-21.75-7.49l.75-.75c2.87.69,8.05-.5,11.25,0-1.23-2.36-2.81-4.52-3.92-6.96-.62-1.36-.34-2.94-.58-3.51l.75-.75h0ZM167.24,198.36c-4.57-3.33-6.66-4.61-12.74-3.74,2.03,1.96,6.91,3.49,9.71,4.15.76.18,3.15,1.07,3.03-.4h0Z"/>
      <path class="cls-11" d="M177.75,101.05v1.5c-3.43-.75-8.87,1.5-11.25,4.12,3.15.66,6.54.4,9.75.37v2.25c-3.99-.02-8.01.02-12,0,.23-.72-.16-2.12,0-2.99.65-.42,2.4-2.25,3-2.99-1.56.38-3.83.37-5.25.74v-1.5c5.89-1.49,9.65-1.67,15.75-1.5Z"/>
      <path class="cls-12" d="M133.5,144.46c-.28,5.95.21,12,0,17.96l-1.5.75-.05-2.17-4.46-.07c1.76,3.28,2.17,10.9,4.5,13.47l-.75.75c-3.71-6.9-4.3-7.54-5.25-15.72.47,0,.7-.74.75-.75,1.64-.22,3.57.16,5.25,0v-14.23c.38.12,1.03-.08,1.5,0h.01Z"/>
      <path class="cls-3" d="M220.5,128.74c2.19,4.23,3.68,7.93,4.5,13.47-1.83-.58-1.39,1.43-1.5,1.5-.51.32-3.48-.23-4.5,0,.17,4.47-.21,9.01,0,13.48h-1.5c.56-5.19.91-14.58-2.25-18.71.46.08,1.02-.06,1.5,0,.38.35,1.64.3,2.07.95.95,1.43-1.04,2.7,3.93,2.04.5-.48-2.39-9.99-3-11.22l.75-1.5h0Z"/>
      <path class="cls-31" d="M200.25,107.78v1.5c-2.57-.68-7.57.49-10.5,0,1.55,3.27,3.17,6.33,4.5,9.73h-1.5c-.97-2.83-4.88-6.67-6-9.73l.75-1.5c1.63.59,6.17-.42,8.25,0-.7-1.38-5.47-3.48-6.75-3.74l.75-.75c5.9,1.69,5.44,1.63,10.5,4.49Z"/>
      <path class="cls-9" d="M189.75,103.29l-.75.75c-1.08-.21-2.57.14-3.75,0v1.11c.72.31,2.08,2.57,2.25,2.63l-.75,1.5c-3.49-.01-7.01.02-10.5,0v-2.25c2.74-.02,5.5.02,8.25,0l-6.75-4.48v-1.5c6.15.17,6.78.75,12,2.25h0ZM184.12,103.29v.75c.49-.25.49-.5,0-.75Z"/>
      <path class="cls-25" d="M144.75,175.9v2.25c-2.99.03-6.01-.02-9,0-.64.56,3.11,5.27,3.75,5.98l-1.5.75c-3.92-4.32-4.06-4.71-6.75-9.73l.75-.75c2.13,2.34,9.4,1.53,12.75,1.5Z"/>
      <path class="cls-2" d="M212.25,116.77c4.43,4.7,5.32,6.31,8.25,11.98l-.75,1.5c-.36-.73-2.11-3.41-2.74-3.63-2.83-.31-5.68-.04-8.51-.12v-1.5c2.48.12,5.01-.09,7.5,0l-5.25-7.48,1.5-.75Z"/>
      <path class="cls-12" d="M162,102.54v1.5c-2.59.68-4.86,2.42-7.49,3-.16,1.3,2.14.73,2.99.74v1.5c-5.72-.17-6.63-.28-11.25,2.99v-2.25c5.28-3.72,9.46-5.89,15.75-7.49h0Z"/>
      <path class="cls-2" d="M199.5,193.86v.75c-.83.47-1.66,2.12-3.99,3.13-2.76,1.2-4.42.79-6.51,1.36v-.75c1.58-.43,3.92-2.28,6-2.26.66-2.27-2.28-1.54-3.75-1.49v-1.5l8.25.75h0Z"/>
      <path class="cls-10" d="M139.5,184.13c.99,1.12,9.59,8.76,10.5,8.98l-.75.75c-5.68-3.45-6.46-3.7-11.25-8.98l1.5-.75Z"/>
      <path class="cls-6" d="M212.25,116.77l-1.5.75c-1.01-1.03-9.85-8.06-10.5-8.23v-1.5c5.85,3.3,7.17,3.86,12,8.98Z"/>
      <path class="cls-3" d="M206.25,189.37l.75.75c-3.79,3.21-3.87,2.43-7.5,4.49v-.75l1.24-.24c.72-2.81,4.26-3.18,5.51-4.25Z"/>
      <path class="cls-18" d="M144.75,137.72c3.61.04,7.4.04,11.25,0,2.99-.03,6.01.02,9,0,4.24-.03,8.51,0,12.75,0,3.99,0,8.01-.02,12,0s8.01-.05,12,0c4.9.06,8.62-.13,13.5.75,3.16,4.13,2.81,13.52,2.25,18.71-.24,2.23-1.37,5.33-2.25,7.49h-49.5c-2.74,0-5.51,0-8.25,0h-3c-3.49-.02-7.01.07-10.5,0s-6.47.15-9.75-.75c-.13-.31.15-.81,0-1.11l-.74-.38c.21-5.96-.28-12.01,0-17.96.06-1.27-.25-2.79.02-3.95.03-.12,1.38-1.97,1.48-2.04,1.84-1.28,7.22-.78,9.75-.75h0ZM156.75,151.2l-1.51-8.51-1.86-.47-4.87,13.47-2.28-13.46h-2.98l4.45,17.63,2.29.33,3.01-11.98c2.09-.58,1.78,2.29,2.25,3.75.54,1.7,1.57,6.89,2.2,7.79.46.67,1.41.66,1.92.43,1.59-.71,4.02-15.31,4.88-17.95-1.61-.15-2.05-.24-2.83,1.28-1.3,2.51-1.98,9.14-2.42,12.18l-2.24-4.49h0ZM178.5,150.45l-1.55-8.2-2.14.02c-1.31,3.51-1.96,7.25-3.05,10.82-.32,1.06.48,1.32-1.51,1.1l-2.24-11.48-2.26-.5,3.76,17.96,2.6-.76,3.4-11.96,2.24,3.74c-.66,1.81,1.99,11.35,4.5,8.99l3.75-17.96-2.31.43-2.94,12.28-2.24-4.49h0ZM201,150.45c-.63-2.48-1.03-5.04-1.89-7.47l-2.6-.77c-.75,3.92-1.76,7.91-2.91,11.73-.37,1.23.6,2.11-1.59,1.74l-2.19-13.03-2.32-.43,3.79,17.92c.11.09,2.21.17,2.54.08.64-.18,3.09-11.03,3.42-12.76.9.22,2.02,2.27,2.24,2.99.27.86,1.68,13.4,4.57,9.29l3.68-17.53h-2.24l-2.26,12.73c-1.56,2.03-2.1-3.91-2.25-4.49h.01Z"/>
      <path class="cls-26" d="M161.25,178.14c4.72-.17,9.52,0,14.25,0,2.99,0,6.01-.03,9,0s6.01-.02,9,0v.75c-1.33,4.98-3.44,9.86-6.74,13.85-4.68.64-9.55.44-14.26.37-2.94-.05-5.92.21-8.85-.16-1.61-3.63-4.57-7.57-6.15-11.07-.58-1.28-.98-2.27-.75-3.74,1.49-.05,3.01.05,4.5,0Z"/>
      <path class="cls-7" d="M165.75,166.17c4.22-.08,8.52-.08,12.75,0,3.89.07,8.21-.32,12,0,1.84.16,3.89,1.24,6,.75l-1.58,8.9c-3.46.2-6.96.02-10.43.08-2.99.05-6.01,0-9,0-4.74,0-9.52.09-14.25,0-1.71-.03-3.45.17-5.15-.1-.24-2.16-2.07-5.62-2.35-7.39-.07-.45,0-1.02,0-1.5,1.43.7,3.08-.67,3.75-.75,2.51-.29,5.62.05,8.25,0h.01Z"/>
      <path class="cls-13" d="M206.25,178.14c2.96,0,6.11-.33,9.01.38-.04,1.27-7.57,9.62-9.01,10.85-1.25,1.07-4.78,1.44-5.51,4.25l-1.24.24-8.25-.75-1.41-.07,6.63-14.56c1.13-.76,7.76-.35,9.78-.34h0Z"/>
      <path class="cls-13" d="M215.25,165.42c1.96-.71,3.84-2.29,3.83-4.37l3.67-.12c.8.77-3.6,13.1-4.87,14.23-1.48,1.31-9.04.77-11.63.74-2.99-.04-6.01.03-9,0l1.51-9.72c1.74-.06,3.5.04,5.25,0,3.81-.1,7.63.56,11.25-.75h0Z"/>
      <path class="cls-13" d="M172.5,195.36c3.96-.05,8.09-.27,12,.37-3.93,3.37-8.27,5.51-13.5,3.37-.86-.35-3.79-2.78-4.5-3.74,1.99-.03,4.01.02,6,0h0Z"/>
      <path class="cls-24" d="M191.25,194.61c1.47-.05,4.41-.78,3.75,1.49-2.07-.03-4.42,1.83-6,2.26-1.14.31-4.06.73-5.25.38,2.86-3.14,3.17-3.97,7.5-4.12h0Z"/>
      <path class="cls-15" d="M184.5,175.9v2.25c-2.99-.03-6.01,0-9,0v-2.25c2.99,0,6.01.05,9,0Z"/>
      <path class="cls-6" d="M190.5,164.67v1.5c-3.79-.32-8.11.07-12,0v-1.5h12Z"/>
      <path class="cls-3" d="M215.25,164.67v.75c-3.62,1.31-7.44.65-11.25.75v-1.5h11.25Z"/>
      <polygon class="cls-15" points="193.5 178.89 193.5 178.14 194.24 178.52 193.5 178.89"/>
      <path class="cls-13" d="M223.5,143.71c.94,5.09,1.08,9.85-.04,14.93l-4.47.04c-.04-.5.03-1,0-1.49-.22-4.46.16-9.01,0-13.48,1.02-.23,4,.32,4.5,0h0Z"/>
      <path class="cls-19" d="M144.75,126.5c1.3.01,8.97-.3,9.01.38l-2.21,9.02c-2.21.66-4.55.27-6.8.32-3.62.09-6.29-.46-9.75.75-4.46,1.56-1.46,6.39-7.5,5.23-.61-.52,4.15-13.74,5.63-14.96,1.64-1.35,8.91-.79,11.62-.76v.02Z"/>
      <path class="cls-26" d="M157.5,109.28c1.11.03,2.95-.37,3.75.37-2.78,4.3-5.29,8.79-6.35,13.87-.95,1.3-7.97.71-10.14.73-3.2.03-6.6.29-9.75-.37,3.45-3.87,6.99-8.59,11.25-11.61,4.62-3.27,5.53-3.16,11.25-2.99h0Z"/>
      <path class="cls-8" d="M164.25,109.28c-1.23,3.87-7.39,9.99-7.51,15.33-.02,1.36,5.94-.33,6.76-.36v2.25c-2.46.06-4.95-.16-7.4.1-.47.3-3.43,10.68-.1,9.63v1.5c-3.85.04-7.64.04-11.25,0v-1.5c2.25-.05,4.59.33,6.8-.32l2.21-9.02c-.04-.69-7.71-.37-9.01-.38v-2.25c2.17-.02,9.19.57,10.14-.73,1.07-5.08,3.57-9.57,6.35-13.87-.8-.74-2.63-.34-3.75-.37v-1.5c3.27.04,3.94.32,6.75-1.5-.16.88.23,2.28,0,2.99h0Z"/>
      <path class="cls-19" d="M132,144.46v14.23c-1.68.15-3.61-.22-5.25,0-.42-4.32-1.29-9.49.13-13.72.83-2.46,3.65-.97,5.12-.5h0Z"/>
      <path class="cls-12" d="M144.75,136.23v1.5c-2.53-.03-7.91-.53-9.75.75v-1.5c3.46-1.21,6.13-.66,9.75-.75Z"/>
      <path class="cls-26" d="M144.75,178.14c3.21-.03,6.45-.09,9.65.1-.2,1.97,2.08,3.76,2.35,4.4.25.58-.03,2.15.58,3.51,1.11,2.44,2.68,4.6,3.92,6.96-3.2-.49-8.38.7-11.25,0-.91-.22-9.51-7.86-10.5-8.98-.63-.71-4.39-5.43-3.75-5.98,2.99-.03,6.01.02,9,0h0Z"/>
      <path class="cls-9" d="M153.75,168.41c.28,1.77,2.11,5.23,2.35,7.39,1.7.27,3.44.06,5.15.1v2.25c-1.49.06-3.01-.05-4.5,0-.23,1.46.17,2.46.75,3.74l-.75.75c-.27-.64-2.55-2.42-2.35-4.4-3.2-.18-6.45-.12-9.65-.1v-2.25c2.99-.03,6.01.03,9,0l-1.5-8.23c.21.26,1.13.44,1.5.75h0Z"/>
      <path class="cls-24" d="M167.24,198.36c.12,1.47-2.27.58-3.03.4-2.8-.66-7.68-2.19-9.71-4.15,6.09-.86,8.17.42,12.74,3.74h0Z"/>
      <path class="cls-22" d="M176.25,109.28c3.49.02,7.01-.01,10.5,0,1.12,3.07,5.03,6.9,6,9.73.39,1.15.34,3.83.75,5.24-3.99.03-8.01-.02-12,0-5.97.04-12.05-.27-18,0-.82.04-6.78,1.73-6.76.36.13-5.34,6.29-11.47,7.51-15.33,3.99.02,8.01-.02,12,0Z"/>
      <path class="cls-18" d="M177.75,102.54l6.75,4.48c-2.74.03-5.5-.01-8.25,0-3.21.03-6.6.29-9.75-.37,2.37-2.62,7.81-4.87,11.25-4.12h0Z"/>
      <path class="cls-24" d="M162,104.04c1.42-.37,3.69-.36,5.25-.74-.6.74-2.35,2.57-3,2.99-2.81,1.81-3.48,1.54-6.75,1.5-.86-.01-3.16.56-2.99-.74,2.63-.58,4.9-2.32,7.49-3h0Z"/>
      <path class="cls-19" d="M132,174.4c-2.33-2.56-2.74-10.18-4.5-13.47l4.46.07.05,2.17,1.5-.75.74.38c.15.31-.13.81,0,1.11.31.73-.16,1.69,1.23,2.13,2.83.29,5.69.06,8.52.11,2.12.04,6.14-.43,7.78-.03.89.22.34,1.37.47,1.53l1.5,8.23c-2.99.03-6.01-.03-9,0-3.35.04-10.62.85-12.75-1.5v.02Z"/>
      <path class="cls-13" d="M208.5,126.5c2.83.07,5.68-.19,8.51.12.63.21,2.38,2.9,2.74,3.63.61,1.24,3.5,10.74,3,11.22-4.97.66-2.98-.61-3.93-2.04-.43-.65-1.69-.6-2.07-.95-.14-.13,0-1.07-.37-1.5-1.21-1.46-11.78-.58-14.63-.74-.98-.06-1.98.14-2.96-.04l-1.54-9.69c3.74.06,7.51-.1,11.25,0h0Z"/>
      <path class="cls-2" d="M216.75,138.47c-.48-.06-1.04.08-1.5,0-4.88-.87-8.6-.69-13.5-.75v-1.5c2.85.16,13.42-.72,14.63.74.37.44.23,1.37.37,1.5h0Z"/>
      <path class="cls-26" d="M200.25,109.28c.65.17,9.49,7.2,10.5,8.23l5.25,7.48c-2.48-.08-5.02.13-7.5,0-3.93-.2-8.27-1.26-12.75-.75.44-2.13-.83-3.53-1.5-5.24-1.32-3.4-2.94-6.46-4.5-9.73,2.92.48,7.92-.68,10.5,0h0Z"/>
      <path class="cls-15" d="M194.25,119.01c.67,1.71,1.94,3.11,1.5,5.24-.49.06-1.01-.06-1.5,0,.07.7-.15,1.62,0,2.25h-12.75v-2.25c3.99-.03,8.01.02,12,0-.41-1.41-.35-4.08-.75-5.24h1.5Z"/>
      <path class="cls-24" d="M189,104.04c1.28.25,6.05,2.36,6.75,3.74-2.08-.41-6.62.59-8.25,0-.16-.06-1.53-2.32-2.24-2.63v-1.11c1.17.14,2.66-.22,3.74,0Z"/>
      <path class="cls-24" d="M184.12,103.29c.49.25.49.5,0,.75v-.75Z"/>
      <path class="cls-6" d="M195.75,124.25c4.48-.51,8.82.55,12.75.75v1.5c-3.74-.09-7.51.06-11.25,0l1.54,9.69c.98.18,1.98-.02,2.96.04v1.5c-3.99-.05-8.01.02-12,0v-1.5c2.24-.04,4.51.04,6.75,0,.89-3.54-1.59-6.92-2.25-9.73-.15-.63.07-1.54,0-2.25.49-.06,1.01.06,1.5,0Z"/>
      <path class="cls-11" d="M155.25,151.95c-.47-1.46-.16-4.32-2.25-3.75l-3.01,11.98-2.29-.33-4.45-17.63h2.98l2.28,13.47,4.87-13.47,1.86.47,1.51,8.51-1.5.75h0Z"/>
      <path class="cls-5" d="M177.75,151.2l-2.24-3.74-3.4,11.96-2.6.76-3.76-17.96,2.26.5,2.24,11.48c1.98.22,1.18-.04,1.51-1.1,1.09-3.57,1.73-7.32,3.05-10.82l2.14-.02,1.55,8.2-.75.75h0Z"/>
      <path class="cls-6" d="M199.5,150.45c-.23-.72-1.35-2.78-2.24-2.99-.33,1.74-2.79,12.58-3.42,12.76-.33.1-2.44.02-2.54-.08l-3.79-17.92,2.32.43,2.19,13.03c2.19.37,1.22-.51,1.59-1.74,1.16-3.82,2.16-7.81,2.91-11.73l2.6.77c.86,2.43,1.26,4.99,1.89,7.47h-1.51Z"/>
      <path class="cls-20" d="M178.5,150.45l2.24,4.49,2.94-12.28,2.31-.43-3.75,17.96c-2.51,2.36-5.15-7.17-4.5-8.99l.75-.75h0Z"/>
      <path class="cls-9" d="M156.75,151.2l2.24,4.49c.44-3.04,1.12-9.68,2.42-12.18.79-1.52,1.22-1.43,2.83-1.28-.86,2.64-3.29,17.24-4.88,17.95-.51.23-1.46.24-1.92-.43-.63-.91-1.65-6.09-2.2-7.79l1.5-.75h0Z"/>
      <path class="cls-2" d="M201,150.45c.15.58.68,6.52,2.25,4.49l2.26-12.73h2.24l-3.68,17.53c-2.89,4.11-4.3-8.43-4.57-9.29h1.5Z"/>
      <path class="cls-29" d="M177.75,136.23v1.5c-4.24,0-8.51-.03-12.75,0v-1.5c4.24,0,8.51.02,12.75,0Z"/>
      <path class="cls-31" d="M178.5,164.67v1.5c-4.23-.08-8.53-.08-12.75,0v-1.5h12.75Z"/>
      <path class="cls-11" d="M154.5,164.67c.08.73-.74,1.81-.75,2.25,0,.48-.07,1.05,0,1.5-.37-.31-1.29-.49-1.5-.75-.13-.16.42-1.31-.47-1.53-1.63-.4-5.66.07-7.78.03v-1.5c3.49.07,7.01-.02,10.5,0Z"/>
      <path class="cls-31" d="M189.75,136.23v1.5c-3.99-.02-8.01,0-12,0v-1.5c3.99,0,8.01.08,12,0Z"/>
      <path class="cls-8" d="M144,164.67v1.5c-2.83-.05-5.69.17-8.52-.11-1.39-.44-.92-1.4-1.23-2.13,3.28.9,6.42.68,9.75.75h0Z"/>
      <path class="cls-11" d="M165,136.23v1.5c-2.99.02-6.01-.03-9,0v-1.5h9Z"/>
      <path class="cls-29" d="M165.75,164.67v1.5c-2.63.05-5.74-.29-8.25,0v-1.5c2.74,0,5.51,0,8.25,0Z"/>
      <path class="cls-9" d="M157.5,164.67v1.5c-.67.08-2.32,1.45-3.75.75,0-.44.83-1.52.75-2.25h3Z"/>
      <path class="cls-20" d="M175.5,175.9v2.25c-4.73,0-9.53-.17-14.25,0v-2.25c4.73.09,9.51,0,14.25,0Z"/>
      <path class="cls-7" d="M163.5,126.5c5.98-.14,12.02,0,18,0h12.75c.66,2.81,3.15,6.19,2.25,9.73-2.24.03-4.51-.05-6.75,0-3.99.08-8.01,0-12,0-4.24.02-8.51,0-12.75,0h-9c-3.33,1.05-.37-9.33.1-9.63,2.45-.26,4.94-.04,7.4-.1Z"/>
      <path class="cls-9" d="M181.5,124.25v2.25c-5.98,0-12.02-.14-18,0v-2.25c5.95-.27,12.03.04,18,0Z"/>
    </g>
  </g>
</svg>